<!DOCTYPE svg PUBLIC "-//W3C//DTD SVG 1.1//EN" "http://www.w3.org/Graphics/SVG/1.1/DTD/svg11.dtd">
<!-- Uploaded to: SVG Repo, www.svgrepo.com, Transformed by: SVG Repo Mixer Tools -->
<svg width="800px" height="800px" viewBox="0 0 48 48" xmlns="http://www.w3.org/2000/svg" fill="#1c1919">
<g id="SVGRepo_bgCarrier" stroke-width="0"/>
<g id="SVGRepo_tracerCarrier" stroke-linecap="round" stroke-linejoin="round"/>
<g id="SVGRepo_iconCarrier">
<title>Free Medical icons</title>
<path d="M39,7H21a2,2,0,0,1,0-4H39A2,2,0,0,1,39,7Z" fill="#1c19191c1919a6c7ff"/>
<path d="M37,15H24a2,2,0,0,1,0-4H37A2,2,0,0,1,37,15Z" fill="#1c19191c1919a6c7ff"/>
<path d="M39,45H21a2,2,0,0,1,0-4H39A2,2,0,0,1,39,45Z" fill="#1c19191c1919a6c7ff"/>
<path d="M37,37H24a2,2,0,0,1,0-4H37A2,2,0,0,1,37,37Z" fill="#1c19191c1919a6c7ff"/>
<path d="M26,26a2,2,0,0,1-1.18-.39C23.3,24.5,10,14.5,10,6a2,2,0,0,1,4,0c0,4.94,7.93,12.25,12,15.48C30.2,18.17,38,11,38,6a2,2,0,0,1,4,0c0,8.5-13.3,18.5-14.82,19.61A2,2,0,0,1,26,26Z" fill="#1c19191c1919"/>
<path d="M12,8a2,2,0,0,1-2-2V2a2,2,0,0,1,4,0V6A2,2,0,0,1,12,8Z" fill="#1c19191c1919"/>
<path d="M40,8a2,2,0,0,1-2-2V2a2,2,0,0,1,4,0V6A2,2,0,0,1,40,8Z" fill="#1c19191c1919"/>
<path d="M40,44a2,2,0,0,1-2-2c0-4.94-7.93-12.25-12-15.48C21.8,29.83,14,37,14,42a2,2,0,0,1-4,0c0-8.5,13.3-18.5,14.82-19.61a2,2,0,0,1,2.37,0C28.7,23.5,42,33.5,42,42A2,2,0,0,1,40,44Z" fill="#1c19191c1919"/>
<path d="M12,48a2,2,0,0,1-2-2V42a2,2,0,0,1,4,0v4A2,2,0,0,1,12,48Z" fill="#1c19191c1919"/>
<path d="M40,48a2,2,0,0,1-2-2V42a2,2,0,0,1,4,0v4A2,2,0,0,1,40,48Z" fill="#1c19191c1919"/>
<rect width="48" height="48" fill="none"/>
</g>
</svg>