<!DOCTYPE svg PUBLIC "-//W3C//DTD SVG 1.1//EN" "http://www.w3.org/Graphics/SVG/1.1/DTD/svg11.dtd">
<!-- Uploaded to: SVG Repo, www.svgrepo.com, Transformed by: SVG Repo Mixer Tools -->
<svg fill="#1c1919" height="800px" width="800px" version="1.1" id="Layer_1" xmlns="http://www.w3.org/2000/svg" xmlns:xlink="http://www.w3.org/1999/xlink" viewBox="0 0 508 508" xml:space="preserve">
<g id="SVGRepo_bgCarrier" stroke-width="0"/>
<g id="SVGRepo_tracerCarrier" stroke-linecap="round" stroke-linejoin="round"/>
<g id="SVGRepo_iconCarrier"> <g> <g> <path d="M493.9,0.05H14.1C6.3,0.05,0,6.35,0,14.15v349.5c0,7.8,6.3,14.1,14.1,14.1h479.8c7.8,0,14.1-6.3,14.1-14.1V14.15 C508,6.35,501.7,0.05,493.9,0.05z M479.8,349.55L479.8,349.55H28.2V28.25h451.6V349.55z"/> </g> </g> <g> <g> <path d="M311.1,177.15l-75.7-47.5c-4.3-2.7-9.8-2.9-14.3-0.4s-7.3,7.2-7.3,12.4v95.1c0,4.9,2.7,9.8,7.3,12.1 c4.3,2.1,9.5,2.3,14.3-0.4l75.7-47.5c4.1-2.6,6.6-7.1,6.6-11.9C317.7,184.15,315.2,179.65,311.1,177.15z M242.1,210.95v-44l35,22 L242.1,210.95z"/> </g> </g> <g> <g> <path d="M254,71.95c-64.5,0-116.9,52.5-116.9,116.9s52.4,117,116.9,117s116.9-52.5,116.9-116.9S318.5,71.95,254,71.95z M254,277.65c-48.9,0-88.7-39.8-88.7-88.7c0-48.9,39.8-88.7,88.7-88.7c48.9,0,88.7,39.8,88.7,88.7 C342.7,237.85,302.9,277.65,254,277.65z"/> </g> </g> <g> <g> <path d="M466.3,434.05H202v-31.6c0-7.8-6.3-14.1-14.1-14.1c-7.8,0-14.1,6.3-14.1,14.1v31.6H41.7c-7.8,0-14.1,6.3-14.1,14.1 s6.3,14.1,14.1,14.1h132.1v31.6c0,7.8,6.3,14.1,14.1,14.1s14.1-6.3,14.1-14.1v-31.6h264.3c7.8,0,14.1-6.3,14.1-14.1 C480.4,440.35,474.1,434.05,466.3,434.05z"/> </g> </g> </g>
</svg>